HIERARCHY
ROOT joint_Root
{
	OFFSET 0.0 0.0 0.0
	CHANNELS 6 Xposition Yposition Zposition Zrotation Xrotation Yrotation 
	JOINT Hips
	{
		OFFSET -0.726466 93.3139 -2.00062
		CHANNELS 6 Xposition Yposition Zposition Zrotation Xrotation Yrotation 
		JOINT Spine
		{
			OFFSET 15.7357 0.0 0.0
			CHANNELS 6 Xposition Yposition Zposition Zrotation Xrotation Yrotation 
			JOINT Chest
			{
				OFFSET 8.98455 -0.406207 0.0
				CHANNELS 6 Xposition Yposition Zposition Zrotation Xrotation Yrotation 
				JOINT Neck
				{
					OFFSET 16.3773 0.0 0.0
					CHANNELS 6 Xposition Yposition Zposition Zrotation Xrotation Yrotation 
					JOINT Head
					{
						OFFSET 6.45672 0.0 0.0
						CHANNELS 6 Xposition Yposition Zposition Zrotation Xrotation Yrotation 
						End Site
						{
							OFFSET 0.0 0.0 0.0
						}
					}
				}
				JOINT Shoulder_L
				{
					OFFSET 12.9942 -0.242716 4.98039
					CHANNELS 6 Xposition Yposition Zposition Zrotation Xrotation Yrotation 
					JOINT UpperArm_L
					{
						OFFSET 5.34809 0.0 0.0
						CHANNELS 6 Xposition Yposition Zposition Zrotation Xrotation Yrotation 
						JOINT LowerArm_L
						{
							OFFSET 24.3286 1.87007e-05 0.0
							CHANNELS 6 Xposition Yposition Zposition Zrotation Xrotation Yrotation 
							JOINT Hand_L
							{
								OFFSET 22.2916 0.0 0.0
								CHANNELS 6 Xposition Yposition Zposition Zrotation Xrotation Yrotation 
								End Site
								{
									OFFSET 0.0 0.0 0.0
								}
							}
						}
					}
				}
				JOINT Shoulder_R
				{
					OFFSET 12.9945 -0.242716 -4.98039
					CHANNELS 6 Xposition Yposition Zposition Zrotation Xrotation Yrotation 
					JOINT UpperArm_R
					{
						OFFSET -5.34813 0.0 0.0
						CHANNELS 6 Xposition Yposition Zposition Zrotation Xrotation Yrotation 
						JOINT LowerArm_R
						{
							OFFSET -24.3289 0.000322201 0.0
							CHANNELS 6 Xposition Yposition Zposition Zrotation Xrotation Yrotation 
							JOINT Hand_R
							{
								OFFSET -22.2915 -0.000108084 0.0
								CHANNELS 6 Xposition Yposition Zposition Zrotation Xrotation Yrotation 
								End Site
								{
									OFFSET 0.0 0.0 0.0
								}
							}
						}
					}
				}
			}
		}
		JOINT UpperLeg_L
		{
			OFFSET -2.19248 -6.46944 0.0
			CHANNELS 6 Xposition Yposition Zposition Zrotation Xrotation Yrotation 
			JOINT LowerLeg_L
			{
				OFFSET 39.0811 0.0 -1.23785e-05
				CHANNELS 6 Xposition Yposition Zposition Zrotation Xrotation Yrotation 
				JOINT Foot_L
				{
					OFFSET 40.9854 0.0 -1.26872e-05
					CHANNELS 6 Xposition Yposition Zposition Zrotation Xrotation Yrotation 
					JOINT Toes_L
					{
						OFFSET 11.7543 0.0 0.0
						CHANNELS 6 Xposition Yposition Zposition Zrotation Xrotation Yrotation 
						End Site
						{
							OFFSET 0.0 0.0 0.0
						}
					}
				}
			}
		}
		JOINT UpperLeg_R
		{
			OFFSET -2.19251 6.46944 0.0
			CHANNELS 6 Xposition Yposition Zposition Zrotation Xrotation Yrotation 
			JOINT LowerLeg_R
			{
				OFFSET -39.0811 -0.00228153 -0.0401928
				CHANNELS 6 Xposition Yposition Zposition Zrotation Xrotation Yrotation 
				JOINT Foot_R
				{
					OFFSET -40.9854 0.0 0.0
					CHANNELS 6 Xposition Yposition Zposition Zrotation Xrotation Yrotation 
					JOINT Toes_R
					{
						OFFSET -11.7543 0.0 0.0
						CHANNELS 6 Xposition Yposition Zposition Zrotation Xrotation Yrotation 
						End Site
						{
							OFFSET 0.0 0.0 0.0
						}
					}
				}
			}
		}
	}
}
MOTION
Frames:	4
Frame Time:	0.0333333
0.000000 0.000000 0.000000 0.000000 0.000000 -0.000000 -0.131175 92.305600 -1.120810 88.217000 0.234631 5.160340 15.735700 0.000005 -0.000001 82.932600 85.074300 -82.475200 8.984550 -0.406207 -0.000000 2.015980 -1.234210 0.935717 16.377300 -0.000001 -0.000001 1.778780 -2.660980 0.504100 6.456720 -0.000001 -0.000000 4.247020 -2.972550 -0.305646 12.994200 -0.242716 4.980390 -89.942500 -0.185328 -72.762200 5.348090 -0.000007 -0.000001 -67.065800 39.882800 -16.114200 24.328600 0.000019 0.000005 2.273050 5.261700 -23.405100 22.291600 -0.000001 0.000005 3.214980 5.465050 -5.181980 12.994500 -0.242716 -4.980390 88.322100 5.487160 -72.968400 -5.348130 -0.000001 -0.000004 -64.824600 39.762500 -17.578000 -24.328900 0.000322 -0.000009 3.194170 10.247200 -17.422000 -22.291500 -0.000108 -0.000004 6.318950 5.320690 -0.512076 -2.192480 -6.469440 -0.000000 -175.738000 -8.288350 -2.273740 39.081100 -0.000007 -0.000012 -0.100183 0.233171 23.251000 40.985400 -0.000006 -0.000013 0.442383 4.530800 -66.047900 11.754300 -0.000000 0.000003 -0.000042 -0.000489 -16.596600 -2.192510 6.469440 -0.000001 178.946000 15.556500 -179.321000 -39.081100 -0.002282 -0.040193 -0.043127 0.129008 19.801300 -40.985400 0.000008 0.000006 2.872720 7.386520 -65.614900 -11.754300 -0.000006 -0.000006 -0.008249 -0.090052 -20.240300
0.000000 0.000000 0.000000 0.000000 0.000000 -0.000000 -0.159293 92.297500 -1.117530 88.211700 0.434164 5.247530 15.735700 0.000005 -0.000001 82.276200 85.000900 -81.839700 8.984550 -0.406207 -0.000000 2.147290 -1.364180 0.897708 16.377300 -0.000001 -0.000001 1.743900 -2.775980 0.569647 6.456720 -0.000001 -0.000000 4.080770 -2.924690 -0.263946 12.994200 -0.242716 4.980390 -89.940400 -0.192278 -72.782700 5.348090 -0.000007 -0.000001 -67.320000 36.407100 -16.123900 24.328600 0.000019 0.000005 1.645430 3.402030 -25.846300 22.291600 -0.000001 0.000005 0.578918 5.443770 -4.406260 12.994500 -0.242716 -4.980390 88.304700 5.465140 -72.736700 -5.348130 -0.000001 -0.000004 -64.052400 38.769800 -18.584000 -24.328900 0.000322 -0.000009 3.662420 10.647700 -19.111300 -22.291500 -0.000108 -0.000004 2.440030 5.303030 -0.013821 -2.192480 -6.469440 -0.000000 -175.724000 -8.096850 -2.253960 39.081100 -0.000007 -0.000012 -0.099836 0.231583 23.321000 40.985400 -0.000006 -0.000013 0.427666 4.530080 -66.062000 11.754300 -0.000000 0.000003 -0.000043 -0.000496 -16.596800 -2.192510 6.469440 -0.000001 178.965000 15.635100 -179.256000 -39.081100 -0.002282 -0.040193 -0.040722 0.121908 19.864100 -40.985400 0.000008 0.000006 2.925440 7.213340 -65.662600 -11.754300 -0.000006 -0.000006 -0.008315 -0.090586 -20.262100
0.000000 0.000000 0.000000 0.000000 0.000000 -0.000000 -0.191170 92.297100 -1.199860 88.243400 0.702422 5.356420 15.735700 0.000005 -0.000001 81.616400 84.962400 -81.203700 8.984550 -0.406207 -0.000000 2.207650 -1.487900 0.853353 16.377300 -0.000001 -0.000001 1.949060 -2.914840 0.639163 6.456720 -0.000001 -0.000000 4.001240 -2.993950 -0.223534 12.994200 -0.242716 4.980390 -89.940100 -0.194026 -72.847600 5.348090 -0.000007 -0.000001 -65.607800 33.182000 -18.017900 24.328600 0.000019 0.000005 0.168372 0.298374 -29.505000 22.291600 -0.000001 0.000005 -2.162630 5.413890 -3.392680 12.994500 -0.242716 -4.980390 88.283900 5.452920 -72.501000 -5.348130 -0.000001 -0.000004 -62.399000 36.490900 -20.406500 -24.328900 0.000322 -0.000009 4.300870 10.668700 -22.114000 -22.291500 -0.000108 -0.000004 -1.706980 5.313390 -0.308442 -2.192480 -6.469440 -0.000000 -175.741000 -7.955590 -2.257660 39.081100 -0.000007 -0.000012 -0.099798 0.231151 23.352000 40.985400 -0.000006 -0.000013 0.435578 4.631640 -65.994900 11.754300 -0.000000 0.000003 -0.000046 -0.000531 -16.598200 -2.192510 6.469440 -0.000001 178.957000 15.714300 -179.226000 -39.081100 -0.002282 -0.040193 -0.038205 0.114320 19.963500 -40.985400 0.000008 0.000006 3.098520 7.006550 -65.709600 -11.754300 -0.000006 -0.000006 -0.008520 -0.092227 -20.329200
0.000000 0.000000 0.000000 0.000000 0.000000 -0.000000 -0.209201 92.293100 -1.348380 88.267600 0.907845 5.542950 15.735700 0.000005 -0.000001 81.330200 84.913300 -80.937100 8.984550 -0.406207 -0.000000 2.297280 -1.551120 0.816566 16.377300 -0.000001 -0.000001 2.272080 -2.980940 0.696295 6.456720 -0.000001 -0.000000 4.167590 -3.119290 -0.236338 12.994200 -0.242716 4.980390 -89.951600 -0.157421 -72.913100 5.348090 -0.000007 -0.000001 -62.087400 29.661400 -21.942600 24.328600 0.000019 0.000005 0.462567 0.673240 -34.429700 22.291600 -0.000001 0.000005 -2.434680 5.426980 -3.832670 12.994500 -0.242716 -4.980390 88.287000 5.376100 -72.297600 -5.348130 -0.000001 -0.000004 -59.487200 33.472200 -23.830100 -24.328900 0.000322 -0.000009 4.796230 9.906350 -26.004300 -22.291500 -0.000108 -0.000004 -1.707360 5.322640 -0.570399 -2.192480 -6.469440 -0.000000 -175.751000 -7.891140 -2.252380 39.081100 -0.000007 -0.000012 -0.098606 0.227391 23.443500 40.985400 -0.000006 -0.000013 0.467547 4.754520 -65.917200 11.754300 -0.000000 0.000003 -0.000048 -0.000541 -16.598600 -2.192510 6.469440 -0.000001 178.926000 15.774900 -179.202000 -39.081100 -0.002282 -0.040193 -0.038347 0.113869 20.099300 -40.985400 0.000008 0.000006 3.067120 6.853000 -65.674900 -11.754300 -0.000006 -0.000006 -0.007954 -0.087654 -20.142400
